<svg xmlns="http://www.w3.org/2000/svg" width="73" height="73" viewBox="0 0 73 73"><path fill="none" stroke="#FFF" stroke-width="4" stroke-miterlimit="10" d="M36.5 6.778c16.434 0 29.754 13.307 29.754 29.72S52.934 66.224 36.5 66.224c-16.432 0-29.753-13.31-29.753-29.724 0-16.416 13.32-29.722 29.754-29.722z"/><g fill="#FFF"><path d="M29.564 22.63c2.188 0 3.963 1.656 3.963 3.698V46.67c0 2.044-1.774 3.7-3.963 3.7s-3.963-1.656-3.963-3.7V26.33c.002-2.042 1.776-3.7 3.964-3.7zM43.436 22.63c2.188 0 3.963 1.656 3.963 3.698V46.67c0 2.044-1.774 3.7-3.964 3.7-2.188 0-3.963-1.656-3.963-3.7V26.33c0-2.042 1.773-3.7 3.963-3.7z"/></g></svg>