<?xml version="1.0" encoding="UTF-8" standalone="no"?>
<svg width="15px" height="15px" viewBox="0 0 15 15" version="1.1" xmlns="http://www.w3.org/2000/svg" xmlns:xlink="http://www.w3.org/1999/xlink">
    <!-- Generator: Sketch 39.1 (31720) - http://www.bohemiancoding.com/sketch -->
    <title>icon-search-nav</title>
    <desc>Created with Sketch.</desc>
    <defs></defs>
    <g id="Symbols" stroke="none" stroke-width="1" fill="none" fill-rule="evenodd">
        <g id="icon-search-nav-darkGray" transform="translate(-1.000000, 0.000000)" fill="#404040">
            <path d="M9.3535,11 C6.5965,11 4.3535,8.757 4.3535,6 C4.3535,3.243 6.5965,1 9.3535,1 C12.1105,1 14.3535,3.243 14.3535,6 C14.3535,8.757 12.1105,11 9.3535,11 M9.3535,0 C6.0395,0 3.3535,2.686 3.3535,6 C3.3535,7.477 3.8895,8.827 4.7745,9.872 L0.9995,13.646 L1.7075,14.353 L5.4815,10.579 C6.5265,11.464 7.8765,12 9.3535,12 C12.6675,12 15.3535,9.314 15.3535,6 C15.3535,2.686 12.6675,0 9.3535,0" id="icon-search-nav"></path>
        </g>
    </g>
</svg>