<?xml version="1.0" encoding="utf-8"?>
<!-- Generator: Adobe Illustrator 21.0.0, SVG Export Plug-In . SVG Version: 6.00 Build 0)  -->
<svg version="1.1" xmlns="http://www.w3.org/2000/svg" xmlns:xlink="http://www.w3.org/1999/xlink" x="0px" y="0px"
	 viewBox="0 0 125 40" enable-background="new 0 0 125 40" xml:space="preserve">
<g id="bg" display="none">
	<rect display="inline" fill="#FFFFFF" width="125" height="40"/>
</g>
<g id="icons">
	<g id="_x36_YnJtV_1_">
		<g>
			<path fill="#FCE233" d="M0,38.75c0-41.667,0,4.167,0-37.5c41.667,0,83.333,0,125,0c0,41.667,0-4.167,0,37.5
				C83.333,38.75,41.667,38.75,0,38.75z"/>
			<path fill="#090802" d="M85.068,19.997c0.29-0.381,0.638-0.731,0.861-1.147c0.86-1.609,2.074-2.938,3.288-4.271
				c0.403-0.442,0.789-0.899,1.19-1.344c0.104-0.115,0.233-0.208,0.435-0.386c0.173,0.879-0.575,1.532-0.347,2.342
				c0.395,0.059,0.429-0.299,0.54-0.499c0.289-0.523,0.28-0.531,0.865-0.367c0.151,0.042,0.318,0.036,0.478,0.037
				c1.489,0.006,2.946-0.205,4.373-0.63c0.155-0.046,0.318-0.1,0.475-0.093c0.802,0.037,1.551-0.185,2.299-0.426
				c0.081-0.026,0.177-0.004,0.246-0.004c0.222,0.295,0.003,0.44-0.166,0.516c-0.579,0.261-0.991,0.75-1.501,1.077
				c-0.644,0.413-1.436,0.593-2.158,0.887c-0.4,0.163-0.785,0.36-1.182,0.53c-0.539,0.23-1.05,0.541-1.682,0.49
				c-0.167-0.013-0.439,0.109-0.508,0.246c-0.348,0.695-0.646,1.414-0.957,2.127c-0.015,0.034,0.013,0.087,0.038,0.221
				c1.941-0.203,3.9-0.524,5.854-0.193c0.011,0.075,0.021,0.149,0.032,0.224c-0.438,0.174-0.865,0.389-1.317,0.513
				c-1.029,0.283-2.09,0.584-2.916,1.224c-0.956,0.741-2.106,0.886-3.137,1.367c-0.371,0.174-0.599,0.322-0.736,0.781
				c-0.14,0.471-0.11,1.166-0.805,1.307c-0.128,0.586-0.249,1.143-0.397,1.82c0.682-0.045,1.28-0.138,1.857-0.327
				c0.898-0.293,1.776-0.647,2.679-0.925c0.743-0.228,1.509-0.383,2.254-0.568c0.093,0.188,0.166,0.335,0.239,0.482l0.02-0.022
				c-0.069-0.049-0.167-0.156-0.202-0.138c-0.427,0.212-0.849,0.397-1.223,0.744c-0.6,0.557-1.282,1.056-2.002,1.447
				c-1.272,0.692-2.597,1.29-3.904,1.917c-0.682,0.328-1.354,0.698-2.069,0.93c-0.479,0.155-1.027,0.101-1.663,0.15
				c0.169-0.44,0.279-0.785,0.432-1.11c0.192-0.411,0.472-0.74,0.515-1.265c0.05-0.618,0.393-1.219,0.639-1.814
				c0.544-1.315,1.093-2.629,1.668-3.932c0.585-1.324,1.15-2.661,2.035-3.828c0.069-0.091,0.146-0.184,0.185-0.29
				c0.258-0.713,0.506-1.43,0.758-2.145c-0.083-0.071-0.11-0.219-0.265-0.192c-0.825,0.959-1.496,2.021-2.027,3.164
				c-0.465,1-0.889,2.019-1.303,3.042c-0.309,0.764-0.567,1.548-0.86,2.318c-0.098,0.257-0.235,0.499-0.349,0.75
				c-0.501,1.113-1.036,2.213-1.484,3.347c-0.19,0.482-0.213,1.034-0.281,1.558c-0.042,0.322-0.064,0.637-0.34,0.886
				c-0.318-0.133-0.249-0.415-0.265-0.648c-0.034-0.496-0.093-0.996-0.064-1.49c0.03-0.505,0.155-1.004,0.236-1.506
				c0.133-0.821-0.091-1.604-0.233-2.401c-0.109-0.608-0.135-1.231-0.199-1.847c-0.009-0.089-0.026-0.177-0.051-0.343
				c-0.168,0.09-0.312,0.137-0.416,0.228c-1.026,0.894-2.052,1.788-3.063,2.699c-0.318,0.286-0.588,0.625-0.88,0.94
				c-0.047,0.051-0.089,0.112-0.146,0.148c-0.725,0.449-1.258,1.144-1.962,1.595c-0.549,0.352-1.228,0.501-1.853,0.731
				c-0.582,0.214-1.167,0.42-1.753,0.622c-0.224,0.077-0.456,0.133-0.685,0.199c-0.022-0.043-0.044-0.087-0.065-0.13
				c0.083-0.089,0.152-0.198,0.25-0.262c0.329-0.214,0.683-0.391,1-0.62c0.746-0.538,1.481-1.093,2.21-1.654
				c0.143-0.11,0.27-0.264,0.355-0.424c0.495-0.935,0.966-1.884,1.466-2.817c0.283-0.527,0.573-1.056,0.916-1.545
				c0.966-1.376,1.524-2.937,2.146-4.477c0.538-1.332,0.88-2.667,0.682-4.111c-0.029-0.213,0.027-0.437,0.044-0.656
				c0.835,0.181,1.058,0.391,1.04,1.223c-0.027,1.246-0.123,2.491-0.187,3.737c-0.009,0.174-0.001,0.349-0.001,0.632
				c0.204-0.159,0.346-0.232,0.437-0.345c0.708-0.879,1.413-1.738,1.806-2.842c0.414-1.162,1.009-2.259,1.535-3.404
				c0.371,0.346-0.003,0.573-0.046,0.833c-0.13,0.793-0.318,1.579-0.412,2.376c-0.189,1.603-0.332,3.212-0.494,4.818
				C84.936,19.872,85.017,19.922,85.068,19.997z"/>
			<path fill="#090802" d="M110.582,13.895c-0.02-0.227-0.04-0.455-0.056-0.633c-0.555-0.462-1-0.315-1.547-0.018
				c-0.893,0.485-1.332,1.32-1.864,2.089c-0.106,0.153-0.084,0.439-0.038,0.646c0.183,0.821,0.572,1.559,1.031,2.253
				c0.368,0.556,0.805,1.066,1.17,1.623c0.225,0.343,0.365,0.741,0.559,1.107c0.182,0.343,0.338,0.715,0.586,1.005
				c0.492,0.574,0.491,1.166,0.189,1.8c-0.12,0.252-0.242,0.459-0.09,0.772c0.186,0.381-0.123,0.704-0.302,1.011
				c-0.161,0.276-0.39,0.516-0.605,0.757c-0.155,0.175-0.228,0.342-0.264,0.594c-0.095,0.657-0.673,0.879-1.211,1.092
				c-0.167,0.066-0.369,0.042-0.545,0.093c-0.17,0.049-0.381,0.1-0.48,0.225c-0.477,0.602-1.185,0.674-1.846,0.833
				c-0.469,0.113-0.959,0.137-1.438,0.215c-0.155,0.025-0.316,0.073-0.453,0.148c-1.478,0.801-3.063,1.086-4.777,0.931
				c0.158-0.104,0.306-0.234,0.477-0.308c0.614-0.263,1.192-0.561,1.711-1.007c0.504-0.434,1.103-0.758,1.665-1.123
				c1.082-0.702,1.755-1.722,2.054-2.937c0.167-0.679,0.078-1.421,0.09-2.136c0.004-0.206-0.106-0.432-0.052-0.615
				c0.221-0.747,0.141-1.51,0.191-2.267c0.024-0.356,0.163-0.705,0.264-1.116c0.345,0.43,0.603,1.268,0.602,1.668
				c-0.001,0.219,0.015,0.5,0.144,0.646c0.534,0.606,0.568,1.339,0.622,2.076c0.019,0.261-0.037,0.562,0.361,0.689
				c0.227-0.455,0.08-1.202,0.92-1.128c0.079-0.58,0.046-1.087-0.334-1.524c-0.045-0.052-0.086-0.108-0.123-0.167
				c-0.368-0.577-0.668-1.216-1.121-1.715c-0.381-0.42-0.586-0.863-0.665-1.42c-0.12,0-0.209-0.001-0.297,0
				c-0.455,0.004-0.452-0.016-0.403-0.442c0.028-0.24-0.012-0.493-0.055-0.734c-0.118-0.661-0.098-1.3-0.016-1.979
				c0.149-1.228,0.989-1.869,1.802-2.575c0.149-0.129,0.283-0.219,0.366-0.445c0.09-0.245,0.393-0.436,0.639-0.594
				c0.777-0.496,1.571-0.966,2.36-1.445c0.097-0.059,0.209-0.17,0.296-0.155c0.494,0.085,1.039,0.101,1.458,0.335
				c0.438,0.245,0.596,0.739,0.61,1.308c0.016,0.654,0.228,1.303,0.35,1.956c0.167,0.892,0.228,1.756-0.19,2.631
				c-0.426,0.891-0.717,1.845-1.091,2.762c-0.138,0.338-0.36,0.642-0.509,0.977c-0.115,0.26-0.175,0.544-0.358,0.845
				c-0.037-0.208-0.104-0.416-0.104-0.624c-0.002-0.6-0.072-1.222,0.059-1.795c0.221-0.97,0.229-1.939,0.26-2.919
				c0.013-0.407,0.18-0.809,0.29-1.269c-0.114,0-0.21,0-0.307,0L110.582,13.895z"/>
			<path fill="#090802" d="M62.294,25.799c0.193-0.108,0.426-0.157,0.499-0.293c0.316-0.583,0.98-0.927,1.107-1.634
				c0.011-0.062,0.063-0.13,0.115-0.171c0.896-0.691,1.357-1.709,1.971-2.612c0.246-0.362,0.526-0.703,0.807-1.04
				c0.275-0.329,0.627-0.581,0.561-1.121c-0.026-0.211,0.239-0.48,0.412-0.688c0.485-0.583,0.908-1.202,1.264-1.874
				c-2.205-1.036-4.475-1.641-6.79-2.211c0.014-0.283,0.261-0.326,0.48-0.336c1.013-0.049,2.033-0.17,3.038-0.094
				c1.642,0.125,3.263,0.172,4.905-0.059c1.232-0.173,2.491-0.147,3.736-0.23c0.435-0.029,0.864-0.149,1.299-0.174
				c0.943-0.053,1.889-0.101,2.833-0.092c0.586,0.005,1.196-0.055,1.804,0.249c-0.327,0.398-0.792,0.389-1.178,0.538
				c-0.687,0.265-1.379,0.519-2.075,0.759c-0.327,0.113-0.663,0.21-1.003,0.266c-0.373,0.061-0.708,0.148-1.002,0.417
				c-0.16,0.146-0.405,0.206-0.62,0.285c-0.734,0.271-1.46,0.53-1.897,1.267c-0.159,0.268-0.455,0.454-0.68,0.685
				c-0.352,0.362-0.673,0.759-1.053,1.089c-0.449,0.389-0.947,0.721-1.487,1.126c-0.038,0.732-0.403,1.43-0.882,2.083
				c-0.846,1.154-1.7,2.303-2.53,3.468c-0.279,0.392-0.536,0.812-0.731,1.251c-0.57,1.281-1.699,1.869-2.911,2.265
				c-0.654,0.214-1.283-0.215-1.817-0.621c-0.197-0.15-0.344-0.374-0.487-0.583c-0.072-0.105-0.158-0.297-0.111-0.37
				c0.396-0.633-0.141-1.345,0.224-2.008c0.33-0.599,0.495-1.289,0.736-1.937c0.362-0.971,0.727-1.942,1.095-2.912
				c0.082-0.215,0.149-0.447,0.279-0.63c0.286-0.403,0.488-0.83,0.573-1.318c0.021-0.12,0.114-0.227,0.198-0.386
				c0.414,0.824,0.247,1.614,0.028,2.351c-0.3,1.008-0.396,2.021-0.401,3.06c-0.001,0.287-0.092,0.585-0.198,0.856
				C62.245,24.838,62.121,25.246,62.294,25.799z"/>
			<path fill="#090802" d="M41.043,28.841c0.028-0.105,0.03-0.227,0.086-0.312c1.334-1.999,1.999-4.299,2.934-6.477
				c0.68-1.585,1.26-3.224,2.305-4.629c0.036-0.049,0.035-0.126,0.063-0.238c-0.404-0.032-0.634,0.098-0.802,0.473
				c-0.395,0.884-0.769,1.789-1.282,2.604c-0.436,0.693-0.64,1.459-0.967,2.183c-0.219,0.483-0.458,0.957-0.675,1.44
				c-0.301,0.672-0.64,1.334-0.873,2.03c-0.31,0.925-0.888,1.662-1.493,2.39c-0.067,0.081-0.187,0.119-0.385,0.238
				c-0.064-0.312-0.2-0.579-0.153-0.808c0.349-1.71,0.763-3.404,1.501-5c0.115-0.248,0.157-0.529,0.244-0.792
				c0.322-0.978,0.66-1.951,0.97-2.933c0.2-0.633,0.362-1.277,0.557-1.974c-0.985-0.76-2.173-1.315-3.302-2.222
				c0.259-0.05,0.361-0.095,0.457-0.085c0.779,0.081,1.56,0.15,2.333,0.266c1.203,0.181,2.391,0.208,3.568-0.158
				c0.153-0.047,0.318-0.059,0.479-0.072c0.984-0.076,1.971-0.122,2.952-0.227c0.756-0.081,1.502-0.248,2.257-0.349
				c0.309-0.041,0.628-0.007,0.968-0.007c-0.204,0.385-0.204,0.385-1.671,0.961c0.477,0.734,0.025,1.405-0.187,2.079
				c-0.946,3.001-2.375,5.799-3.653,8.662c-0.513,1.15-1.323,2.047-2.084,2.996c-0.184,0.23-0.528,0.331-0.823,0.458
				c1.271-2.152,1.857-4.552,2.748-6.867c-0.757,0.189-1.573,0.086-1.958,1c-0.383,0.911-0.878,1.776-1.343,2.651
				c-0.265,0.499-0.491,1.051-0.871,1.448c-0.514,0.536-1.159,0.946-1.748,1.411C41.143,28.935,41.093,28.888,41.043,28.841z"/>
			<path fill="#090802" d="M12.361,29.578c0.128-0.494,0.264-0.986,0.381-1.483c0.386-1.635,0.765-3.272,1.145-4.908
				c0.068-0.292,0.123-0.587,0.197-0.878c0.244-0.956,0.502-1.908,0.734-2.866c0.065-0.266,0.035-0.555,0.09-0.824
				c0.087-0.424,0.215-0.838,0.314-1.26c0.131-0.557,0.262-1.115,0.371-1.677c0.053-0.271,0.047-0.553,0.082-0.829
				c0.081-0.633,0.514-1.118,1.143-1.192c1.028-0.122,2.059-0.226,3.092-0.285c0.77-0.044,1.519,0.114,2.214,0.469
				c0.697,0.356,0.918,0.87,0.732,1.649c-0.084,0.352-0.112,0.722-0.235,1.059c-0.091,0.25-0.289,0.463-0.449,0.685
				c-0.066,0.092-0.204,0.153-0.231,0.251c-0.222,0.801-0.889,1.139-1.531,1.507c-0.503,0.289-0.541,0.372-0.456,0.946
				c0.02,0.137,0.048,0.274,0.058,0.412c0.087,1.19,0.165,2.381,0.259,3.57c0.053,0.668,0.169,1.334,0.187,2.002
				c0.019,0.69,0.276,1.253,0.721,1.751c0.446,0.499,0.903,0.988,1.347,1.487c0.071,0.079,0.102,0.194,0.177,0.343
				c-1.02,0.108-1.824-0.282-2.709-0.983c-0.305-1.084-0.713-2.372-0.943-3.718c-0.208-1.22-0.537-2.42-0.811-3.629
				c-0.051-0.225-0.088-0.453-0.134-0.679c-0.089-0.441-0.27-0.521-0.677-0.301c-0.141,0.077-0.272,0.187-0.422,0.231
				c-0.367,0.108-0.437,0.35-0.519,0.707c-0.155,0.68-0.325,1.371-0.725,1.977c-0.172,0.26-0.248,0.584-0.365,0.88
				c-0.212,0.533-0.411,1.071-0.636,1.598c-0.306,0.718-0.587,1.452-0.962,2.133c-0.372,0.674-0.849,1.291-1.28,1.933
				C12.468,29.628,12.415,29.603,12.361,29.578z"/>
			<path fill="#090802" d="M38.907,14.337c-0.189,0.52-0.343,0.971-0.516,1.416c-0.343,0.882-0.623,1.777-0.801,2.712
				c-0.171,0.901-0.454,1.78-0.687,2.669c-0.018,0.067-0.023,0.142-0.058,0.199c-0.406,0.681-0.592,1.438-0.791,2.196
				c-0.244,0.932-0.525,1.856-0.827,2.771c-0.155,0.471-0.404,0.911-0.584,1.375c-0.073,0.188-0.065,0.405-0.114,0.605
				c-0.035,0.144-0.104,0.281-0.176,0.468c-0.58-0.274-0.776-0.799-0.994-1.244c-0.374-0.762-0.665-1.568-0.936-2.374
				c-0.328-0.975-0.596-1.969-0.901-2.952c-0.043-0.14-0.149-0.261-0.223-0.387c-0.081,0.041-0.151,0.059-0.151,0.078
				c0,0.596-0.28,1.096-0.526,1.613c-0.641,1.348-1.193,2.739-2.005,4.001c-0.187,0.29-0.374,0.585-0.603,0.84
				c-0.127,0.141-0.338,0.213-0.519,0.3c-0.182,0.088-0.404,0.118-0.556,0.239c-0.418,0.331-0.861,0.412-1.432,0.227
				c0.127-0.125,0.21-0.256,0.329-0.317c1.105-0.564,1.859-1.376,2.151-2.634c0.154-0.662,0.572-1.258,0.779-1.913
				c0.219-0.696,0.33-1.426,0.485-2.141c0.024-0.113,0.024-0.231,0.055-0.342c0.281-1.017,0.559-2.035,0.852-3.049
				c0.351-1.215,0.714-2.427,1.075-3.64c0.091-0.305,0.154-0.627,0.295-0.908c0.225-0.449,0.655-0.498,0.908-0.09
				c0.227,0.366,0.473,0.784,0.501,1.194c0.055,0.795,0.303,1.535,0.462,2.3c0.13,0.628,0.174,1.274,0.283,1.907
				c0.074,0.431,0.176,0.86,0.3,1.279c0.1,0.336,0.236,0.648,0.004,0.99c-0.136,0.2-0.01,0.385,0.183,0.426
				c0.103,0.022,0.313-0.103,0.355-0.209c0.285-0.724,0.532-1.463,0.806-2.191c0.105-0.278,0.25-0.541,0.377-0.811
				c0.157-0.333,0.346-0.655,0.467-1.001c0.344-0.98,0.776-1.913,1.367-2.768c0.144-0.208,0.31-0.403,0.49-0.58
				C38.251,14.376,38.508,14.235,38.907,14.337z"/>
			<path fill="#090802" d="M70.101,25.834c0.856-0.085,1.745-0.139,2.622-0.27c0.846-0.126,1.656-0.455,2.606-0.583
				c-0.897,1.137-1.993,1.718-3.222,2.111c-0.568,0.181-1.111,0.444-1.656,0.691c-0.944,0.427-1.873,0.886-2.821,1.303
				c-0.698,0.307-1.141,0.339-1.898,0.227c0.09-1.014,0.354-1.98,0.899-2.841c0.418-0.66,0.924-1.263,1.359-1.912
				c1.155-1.725,2.315-3.448,3.426-5.201c0.445-0.701,0.809-1.454,1.443-2.012c0.142-0.125,0.339-0.217,0.525-0.257
				c0.421-0.091,0.857-0.118,1.277-0.212c0.918-0.207,1.834-0.428,2.745-0.666c0.801-0.209,1.593-0.456,2.393-0.671
				c0.188-0.051,0.391-0.042,0.637,0.068c-0.41,0.311-0.812,0.631-1.23,0.929c-0.45,0.321-0.917,0.619-1.372,0.933
				c-0.629,0.435-1.298,0.768-2.017,1.047c-0.679,0.264-1.312,0.679-1.91,1.105c-0.273,0.195-0.413,0.576-0.703,1.006
				c0.716-0.114,1.277-0.206,1.839-0.291c0.548-0.083,1.101-0.138,1.644-0.247c0.544-0.109,1.007-0.526,1.727-0.51
				c-0.126,0.168-0.162,0.245-0.223,0.292c-1.785,1.367-3.674,2.549-5.832,3.249c-0.174,0.057-0.331,0.182-0.507,0.216
				c-1.262,0.242-1.445,1.34-1.826,2.281C70.013,25.648,70.052,25.699,70.101,25.834z"/>
			<path fill="#090802" d="M95.265,25.012c0.158-0.156,0.337-0.296,0.472-0.471c1.034-1.342,1.792-2.841,2.47-4.383
				c0.695-1.582,1.403-3.158,2.066-4.753c0.246-0.592,0.354-1.24,0.576-1.843c0.122-0.333-0.024-0.88,0.614-0.902
				c0.07-0.002,0.129-0.303,0.212-0.511c0.34,0.247,0.259,0.572,0.295,0.846c0.056,0.425,0.045,0.839,0.221,1.27
				c0.139,0.34,0.034,0.827-0.082,1.213c-0.259,0.86-0.594,1.696-0.895,2.543c-0.092,0.26-0.202,0.52-0.252,0.789
				c-0.086,0.463-0.297,0.846-0.533,1.252c-0.268,0.46-0.374,1.027-0.486,1.562c-0.111,0.528-0.295,0.984-0.622,1.431
				c-0.223,0.305-0.51,0.625-0.498,1.118c0.008,0.352-0.278,0.714-0.448,1.065c-0.106,0.22-0.239,0.428-0.439,0.783
				c0.372,0,0.606-0.004,0.84,0.001c0.502,0.012,1.003,0.031,1.505,0.041c0.134,0.002,0.274,0.001,0.4-0.035
				c0.664-0.192,1.328-0.384,1.984-0.601c0.26-0.086,0.498-0.236,0.748-0.353c0.201-0.094,0.404-0.183,0.751-0.341
				c-0.063,0.351-0.044,0.596-0.148,0.765c-0.275,0.447-0.604,0.862-0.91,1.29c-0.669,0.936-1.75,1.202-2.704,1.679
				c-1.202,0.601-2.547,0.572-3.812,0.892c-0.119,0.03-0.261-0.034-0.539-0.077c0.276-0.213,0.452-0.348,0.681-0.525
				c-0.474-0.154-0.843-0.097-1.19,0.194c0.05,0.126,0.095,0.238,0.159,0.397c-1.58,0.288-3.102,0.682-4.666,0.119
				c-0.206-0.074-0.484,0.021-0.721,0.071c-0.527,0.11-1.005,0.484-1.594,0.302c-0.011-0.277,0.175-0.362,0.369-0.447
				c0.465-0.203,0.938-0.391,1.387-0.625c0.407-0.211,0.783-0.481,1.181-0.711c0.298-0.172,0.593-0.403,0.916-0.464
				c0.564-0.106,0.983-0.393,1.324-0.814c0.475-0.586,0.926-1.19,1.388-1.786C95.285,24.991,95.265,25.012,95.265,25.012z"/>
			<path fill="#090802" d="M60.967,13.36c-0.488,0.284-0.951,0.63-1.47,0.836c-0.757,0.302-1.431,0.731-2.121,1.146
				c-0.431,0.259-0.895,0.478-1.366,0.656c-0.487,0.184-0.778,0.56-1.034,0.957c-0.335,0.519-0.609,1.077-0.903,1.622
				c-0.126,0.234-0.235,0.477-0.391,0.796c0.893,0.237,1.577-0.181,2.285-0.37c0.698-0.186,1.377-0.445,2.149-0.701
				c-0.102,0.176-0.141,0.317-0.234,0.394c-1.164,0.973-2.276,1.976-3.839,2.369c-1.921,0.483-2.998,1.87-3.423,3.779
				c-0.003,0.013,0.028,0.034,0.108,0.126c1.89-0.953,3.97-1.434,6.085-1.941c-0.105,0.129-0.191,0.281-0.318,0.382
				c-1.647,1.314-3.422,2.425-5.319,3.343c-0.477,0.231-0.939,0.493-1.413,0.729c-0.659,0.328-1.303,0.675-2.052,0.801
				c-0.421,0.071-0.812,0.309-1.22,0.465c-0.22,0.084-0.445,0.154-0.785,0.271c0.088-0.222,0.104-0.312,0.153-0.376
				c0.515-0.678,1.08-1.322,1.539-2.035c0.331-0.513,0.526-1.114,0.775-1.678c0.341-0.775,0.679-1.551,1.011-2.33
				c0.314-0.737,0.618-1.479,0.928-2.218c0.062-0.147,0.106-0.308,0.199-0.433c0.555-0.744,0.898-1.589,1.24-2.442
				c0.334-0.833,0.72-1.647,1.127-2.448c0.083-0.163,0.346-0.285,0.547-0.329c1.779-0.387,3.563-0.752,5.345-1.125
				c0.698-0.146,1.395-0.298,2.094-0.438c0.082-0.016,0.176,0.027,0.264,0.043C60.942,13.262,60.954,13.311,60.967,13.36z"/>
			<path fill="#090802" d="M24.703,12.662c0.344,0.006,0.488,0.162,0.466,0.438c-0.094,1.198-0.188,2.396-0.308,3.591
				c-0.029,0.291-0.148,0.575-0.242,0.857c-0.124,0.37-0.298,0.732-0.025,1.112c0.022,0.03,0.008,0.091,0.002,0.136
				c-0.184,1.343-0.401,2.682-0.541,4.029c-0.064,0.613-0.016,1.246,0.049,1.863c0.062,0.589,0.603,0.788,1.061,0.401
				c0.43-0.364,0.716-0.84,0.87-1.388c0.33-1.176,0.649-2.355,0.996-3.525c0.097-0.327,0.274-0.63,0.418-0.942
				c0.038-0.084,0.132-0.169,0.122-0.243c-0.114-0.903,0.461-1.611,0.693-2.413c0.229-0.794,0.577-1.556,0.896-2.322
				c0.156-0.375,0.344-0.745,0.86-0.907c-0.023,0.62,0.372,1.172-0.005,1.749c-0.012,0.018-0.015,0.044-0.017,0.067
				c-0.124,1.643-0.584,3.218-0.969,4.809c-0.173,0.716-0.371,1.426-0.55,2.141c-0.262,1.044-0.476,2.103-0.787,3.132
				c-0.407,1.344-1.094,2.488-2.538,2.961c-0.73,0.239-1.768-0.011-2.188-0.66c-0.382-0.591-0.642-1.269-0.897-1.931
				c-0.092-0.238-0.018-0.541-0.011-0.815c0.005-0.183,0.037-0.365,0.039-0.548c0.006-0.436-0.029-0.875,0.007-1.308
				c0.176-2.126,0.626-4.196,1.287-6.224c0.143-0.438,0.226-0.895,0.332-1.344c0.112-0.471,0.178-0.958,0.34-1.41
				C24.22,13.522,24.476,13.113,24.703,12.662z"/>
			<path fill="#090802" d="M110.568,13.895c-0.034,0.008-0.068,0.017-0.102,0.025c0.039-0.008,0.078-0.017,0.116-0.025
				L110.568,13.895z"/>
			<path fill="#FCE233" d="M90.189,15.466c0.043-0.194,0.135-0.394,0.352-0.243c0.19,0.133,0.081,0.315-0.088,0.434
				C90.365,15.593,90.277,15.529,90.189,15.466z"/>
			<path fill="#FCE233" d="M85.068,19.997c-0.272,0.108-0.226-0.047-0.173-0.208C84.953,19.858,85.011,19.927,85.068,19.997z"/>
			<path fill="#FCE233" d="M46.157,21.123c0.688-1.354,0.82-2.773,1.654-3.915c0.15-0.206,0.14-0.528,0.147-0.837
				c0.805-0.609,1.794-0.847,2.928-1.187c-0.166,0.263-0.225,0.399-0.32,0.5c-1.001,1.056-1.553,2.371-2.124,3.674
				c-0.157,0.358-0.326,0.712-0.472,1.075c-0.171,0.424-0.423,0.693-0.93,0.642C46.798,21.051,46.548,21.099,46.157,21.123z"/>
			<path fill="#FCE233" d="M17.446,17.936c-0.187-0.942,0.461-1.566,0.525-2.385c0.602-0.026,1.169-0.089,1.733-0.065
				c0.539,0.024,0.645,0.272,0.312,0.703C19.363,17.033,18.585,17.71,17.446,17.936z"/>
			<path fill="#FCE233" d="M69.98,25.784c-0.019,0.019-0.034,0.034-0.049,0.049c-0.015-0.031-0.036-0.061-0.043-0.093
				c-0.003-0.011,0.028-0.03,0.043-0.046C69.947,25.725,69.964,25.755,69.98,25.784z"/>
		</g>
	</g>
</g>
</svg>
