<?xml version="1.0" encoding="utf-8"?>
<!-- Generator: Adobe Illustrator 19.2.0, SVG Export Plug-In . SVG Version: 6.00 Build 0)  -->
<svg version="1.1" xmlns="http://www.w3.org/2000/svg" xmlns:xlink="http://www.w3.org/1999/xlink" x="0px" y="0px"
	 viewBox="0 0 125 40" enable-background="new 0 0 125 40" xml:space="preserve">
<g id="bg" display="none">
	<rect display="inline" fill="#FFFFFF" width="125" height="40"/>
</g>
<g id="icons">
	<g>
		<g>
			<path fill="#CF2827" d="M71.487,28.611c0.581,0.578,1.155,0.853,1.726,0.853c1.001,0,1.507-0.853,1.507-2.58v-8.158
				c0-1.727-0.507-2.612-1.507-2.612c-0.571,0-1.145,0.271-1.726,0.843V28.611z"/>
			<path fill="#CF2827" d="M85.875,16.114c-1.154,0-1.735,0.885-1.735,2.654v1.769h3.464v-1.769
				C87.604,16.999,87.025,16.114,85.875,16.114z"/>
			<path fill="#CF2827" d="M95.333,8.63c0,0-0.561-3.92-2.269-5.646c-2.173-2.263-4.608-2.276-5.728-2.408C79.345,0,67.35,0,67.35,0
				h-0.022c0,0-11.995,0-19.986,0.576c-1.116,0.132-3.55,0.145-5.723,2.408C39.905,4.71,39.346,8.63,39.346,8.63
				s-0.571,4.603-0.571,9.203v4.317c0,4.602,0.571,9.202,0.571,9.202s0.56,3.919,2.273,5.646c2.173,2.266,5.023,2.192,6.297,2.431
				C52.485,39.865,67.339,40,67.339,40s12.006-0.018,19.997-0.593c1.12-0.133,3.556-0.142,5.728-2.409
				c1.708-1.727,2.269-5.646,2.269-5.646s0.57-4.6,0.57-9.202v-4.317C95.903,13.233,95.333,8.63,95.333,8.63z"/>
			<path fill="#FFFFFF" d="M55.062,13.229v15.117c0,1.351,0.118,2.265,0.307,2.845c0.346,0.966,1.115,1.42,2.23,1.42
				c1.275,0,2.583-0.768,3.961-2.346v2.084h3.465v-19.12H61.56v14.614c-0.769,1.084-1.497,1.621-2.192,1.621
				c-0.46,0-0.723-0.275-0.812-0.81c-0.03-0.112-0.03-0.537-0.03-1.349V13.229H55.062z"/>
			<path fill="#FFFFFF" d="M68.023,6.691v25.658h3.464v-1.854c1.155,1.432,2.351,2.116,3.58,2.116c1.378,0,2.305-0.726,2.77-2.149
				c0.233-0.809,0.349-2.084,0.349-3.85v-7.613c0-1.812-0.115-3.074-0.349-3.845c-0.465-1.429-1.392-2.155-2.77-2.155
				c-1.274,0-2.462,0.694-3.58,2.071V6.691H68.023z M73.213,16.114c1.001,0,1.507,0.885,1.507,2.612v8.158
				c0,1.727-0.507,2.58-1.507,2.58c-0.571,0-1.145-0.275-1.726-0.853V16.957C72.067,16.385,72.641,16.114,73.213,16.114z"/>
			<polygon fill="#FFFFFF" points="43.438,10.302 47.512,10.302 47.512,32.349 51.369,32.349 51.369,10.302 55.518,10.302 
				55.518,6.691 43.438,6.691 			"/>
			<path fill="#FFFFFF" d="M85.909,12.999c-1.769,0-3.146,0.651-4.149,1.958c-0.738,0.968-1.069,2.463-1.069,4.505v6.696
				c0,2.031,0.376,3.54,1.109,4.495c1.002,1.306,2.385,1.958,4.194,1.958c1.81,0,3.232-0.684,4.188-2.071
				c0.422-0.613,0.693-1.31,0.813-2.077c0.029-0.346,0.074-1.114,0.074-2.23v-0.506h-3.537c0,1.39-0.047,2.159-0.076,2.347
				c-0.198,0.926-0.694,1.39-1.548,1.39c-1.188,0-1.769-0.884-1.769-2.654v-3.39h6.93v-3.958c0-2.042-0.347-3.537-1.074-4.505
				C89.028,13.65,87.645,12.999,85.909,12.999z M87.604,20.538H84.14v-1.769c0-1.77,0.581-2.654,1.735-2.654
				c1.15,0,1.729,0.885,1.729,2.654V20.538z"/>
		</g>
		<path fill="#020202" d="M8.746,21.898V32.4H4.862V21.898c-0.349-1.86-1.126-4.585-2.372-8.201C1.668,11.291,0.817,8.877,0,6.472
			h4.084l2.754,10.181L9.488,6.472h3.925L8.746,21.898z M21.935,30.687c-0.966,1.316-2.331,1.976-4.084,1.976
			c-1.744,0-3.109-0.66-4.074-1.976c-0.742-0.966-1.097-2.491-1.097-4.542v-6.767c0-2.065,0.354-3.574,1.097-4.551
			c0.966-1.321,2.331-1.981,4.074-1.981c1.752,0,3.118,0.659,4.084,1.981c0.738,0.977,1.087,2.486,1.087,4.551v6.767
			C23.022,28.196,22.673,29.721,21.935,30.687z M19.52,18.674c0-1.788-0.537-2.678-1.668-2.678c-1.127,0-1.669,0.89-1.669,2.678
			v8.129c0,1.785,0.543,2.679,1.669,2.679c1.131,0,1.668-0.894,1.668-2.679V18.674z M32.275,32.4v-2.107
			c-1.389,1.597-2.719,2.371-3.999,2.371c-1.125,0-1.903-0.456-2.251-1.434c-0.195-0.586-0.314-1.508-0.314-2.875V13.079h3.491
			v14.225c0,0.82,0,1.246,0.045,1.359c0.076,0.543,0.349,0.82,0.818,0.82c0.701,0,1.438-0.543,2.21-1.638V13.079h3.502V32.4H32.275z
			"/>
	</g>
</g>
</svg>
